<mxfile host="app.diagrams.net" modified="2021-11-22T07:55:20.383Z" agent="5.0 (Windows NT 10.0; Win64; x64) AppleWebKit/537.36 (KHTML, like Gecko) Chrome/94.0.4606.81 Safari/537.36" etag="RIV-_U0cJBEMkqcUo9t2" version="15.7.4" type="github">
  <diagram id="rowcK11PJ-MsxG_QPc3x" name="第 1 页">
    <mxGraphModel dx="-198" dy="1044" grid="1" gridSize="10" guides="1" tooltips="1" connect="1" arrows="1" fold="1" page="1" pageScale="1" pageWidth="827" pageHeight="1169" math="0" shadow="0">
      <root>
        <mxCell id="0" />
        <mxCell id="1" parent="0" />
        <mxCell id="cGX8REVQluAasgFqY5tH-1" value="" style="edgeStyle=none;html=1;fontColor=#000000;strokeWidth=3;strokeColor=#000000;" parent="1" edge="1">
          <mxGeometry width="100" height="100" relative="1" as="geometry">
            <mxPoint x="2208.5" y="1600" as="sourcePoint" />
            <mxPoint x="3180" y="1600" as="targetPoint" />
          </mxGeometry>
        </mxCell>
        <mxCell id="cGX8REVQluAasgFqY5tH-7" value="" style="rounded=0;whiteSpace=wrap;html=1;fillColor=#F08705;" parent="1" vertex="1">
          <mxGeometry x="2770.75" y="1390" width="32.5" height="208.25" as="geometry" />
        </mxCell>
        <mxCell id="cGX8REVQluAasgFqY5tH-8" value="" style="rounded=0;whiteSpace=wrap;html=1;fillColor=#009A00;" parent="1" vertex="1">
          <mxGeometry x="2803.25" y="1290" width="32.5" height="308.25" as="geometry" />
        </mxCell>
        <mxCell id="cGX8REVQluAasgFqY5tH-11" value="" style="rounded=0;whiteSpace=wrap;html=1;fillColor=#F08705;" parent="1" vertex="1">
          <mxGeometry x="2896.75" y="1300" width="32.5" height="298.25" as="geometry" />
        </mxCell>
        <mxCell id="cGX8REVQluAasgFqY5tH-12" value="" style="rounded=0;whiteSpace=wrap;html=1;fillColor=#009A00;" parent="1" vertex="1">
          <mxGeometry x="2929.25" y="1290" width="32.5" height="308.25" as="geometry" />
        </mxCell>
        <mxCell id="cGX8REVQluAasgFqY5tH-16" value="" style="rounded=0;whiteSpace=wrap;html=1;fillColor=#009A00;" parent="1" vertex="1">
          <mxGeometry x="2270" y="1290" width="62" height="308.25" as="geometry" />
        </mxCell>
        <mxCell id="cGX8REVQluAasgFqY5tH-18" value="" style="whiteSpace=wrap;gradientColor=none;gradientDirection=east;strokeColor=none;html=1;fontColor=#23445d;fillColor=#009a00;" parent="1" vertex="1">
          <mxGeometry x="3134" y="1120" width="35.000000000000114" height="30.000000000000227" as="geometry" />
        </mxCell>
        <mxCell id="cGX8REVQluAasgFqY5tH-19" value="" style="whiteSpace=wrap;gradientColor=none;gradientDirection=east;strokeColor=none;html=1;fontColor=#23445d;fillColor=#F08705;" parent="1" vertex="1">
          <mxGeometry x="3133.9999999999995" y="1080" width="35.000000000000114" height="30.000000000000227" as="geometry" />
        </mxCell>
        <mxCell id="cGX8REVQluAasgFqY5tH-20" value="" style="whiteSpace=wrap;gradientColor=none;gradientDirection=east;strokeColor=none;html=1;fontColor=#23445d;fillColor=#0078b9;" parent="1" vertex="1">
          <mxGeometry x="3134" y="1040" width="35.000000000000114" height="30.000000000000114" as="geometry" />
        </mxCell>
        <mxCell id="cGX8REVQluAasgFqY5tH-24" value="" style="edgeStyle=none;html=1;fontColor=#000000;strokeWidth=3;strokeColor=#000000;" parent="1" edge="1">
          <mxGeometry width="100" height="100" relative="1" as="geometry">
            <mxPoint x="2210" y="1600.5" as="sourcePoint" />
            <mxPoint x="2214" y="960" as="targetPoint" />
          </mxGeometry>
        </mxCell>
        <mxCell id="cGX8REVQluAasgFqY5tH-25" value="&lt;font style=&quot;font-size: 30px&quot;&gt;0.00&lt;/font&gt;" style="text;spacingTop=-5;align=center;verticalAlign=middle;fontStyle=0;html=1;fontSize=18;points=[];labelBackgroundColor=none;labelBorderColor=none;rounded=0;" parent="1" vertex="1">
          <mxGeometry x="2144" y="1579.5" width="30" height="40" as="geometry" />
        </mxCell>
        <mxCell id="cGX8REVQluAasgFqY5tH-28" value="" style="rounded=0;whiteSpace=wrap;html=1;fillColor=#009A00;" parent="1" vertex="1">
          <mxGeometry x="2400" y="1290" width="58" height="308.25" as="geometry" />
        </mxCell>
        <mxCell id="cGX8REVQluAasgFqY5tH-31" value="" style="rounded=0;whiteSpace=wrap;html=1;fillColor=#009A00;" parent="1" vertex="1">
          <mxGeometry x="2530" y="1290" width="54.25" height="308.25" as="geometry" />
        </mxCell>
        <mxCell id="cGX8REVQluAasgFqY5tH-33" value="" style="rounded=0;whiteSpace=wrap;html=1;fillColor=#F08705;" parent="1" vertex="1">
          <mxGeometry x="2645.25" y="1400" width="32.5" height="198.25" as="geometry" />
        </mxCell>
        <mxCell id="cGX8REVQluAasgFqY5tH-34" value="" style="rounded=0;whiteSpace=wrap;html=1;fillColor=#009A00;" parent="1" vertex="1">
          <mxGeometry x="2677.75" y="1290" width="32.5" height="308.25" as="geometry" />
        </mxCell>
        <mxCell id="cGX8REVQluAasgFqY5tH-37" value="" style="rounded=0;whiteSpace=wrap;html=1;fillColor=#F08705;" parent="1" vertex="1">
          <mxGeometry x="3022.75" y="920" width="32.5" height="677.25" as="geometry" />
        </mxCell>
        <mxCell id="cGX8REVQluAasgFqY5tH-38" value="" style="rounded=0;whiteSpace=wrap;html=1;fillColor=#009A00;" parent="1" vertex="1">
          <mxGeometry x="3055.25" y="980" width="32.5" height="617.25" as="geometry" />
        </mxCell>
        <mxCell id="cGX8REVQluAasgFqY5tH-39" value="10&lt;sup&gt;3&lt;/sup&gt;" style="text;spacingTop=-5;align=center;verticalAlign=middle;fontStyle=0;html=1;fontSize=30;points=[];labelBackgroundColor=none;labelBorderColor=none;rounded=0;" parent="1" vertex="1">
          <mxGeometry x="2144" y="985" width="30" height="40" as="geometry" />
        </mxCell>
        <mxCell id="cGX8REVQluAasgFqY5tH-46" value="&lt;span style=&quot;font-size: 30px&quot;&gt;10&lt;/span&gt;&lt;font style=&quot;font-size: 31px&quot;&gt;&lt;sup&gt;2&lt;/sup&gt;&lt;/font&gt;" style="text;spacingTop=-5;align=center;verticalAlign=middle;fontStyle=0;html=1;fontSize=18;points=[];labelBackgroundColor=none;labelBorderColor=none;rounded=0;" parent="1" vertex="1">
          <mxGeometry x="2144" y="1185" width="30" height="40" as="geometry" />
        </mxCell>
        <mxCell id="cGX8REVQluAasgFqY5tH-47" value="&lt;span style=&quot;font-size: 30px&quot;&gt;10&lt;/span&gt;" style="text;spacingTop=-5;align=center;verticalAlign=middle;fontStyle=0;html=1;fontSize=18;points=[];labelBackgroundColor=none;labelBorderColor=none;rounded=0;" parent="1" vertex="1">
          <mxGeometry x="2144" y="1380" width="30" height="40" as="geometry" />
        </mxCell>
        <mxCell id="cGX8REVQluAasgFqY5tH-48" value="&lt;font style=&quot;font-size: 30px&quot;&gt;单次迭代传输时间(s)&lt;br&gt;&lt;br&gt;&lt;/font&gt;" style="text;spacingTop=-5;html=1;fontSize=24;fontStyle=0;points=[];textDirection=ltr;align=right;verticalAlign=top;horizontal=0;" parent="1" vertex="1">
          <mxGeometry x="2072" y="965" width="80" height="20" as="geometry" />
        </mxCell>
        <mxCell id="O5yS58qQo2ibNoiR0Kj5-15" value="&lt;font style=&quot;font-size: 30px&quot;&gt;8-coflow&lt;/font&gt;" style="text;spacingTop=-5;align=center;verticalAlign=middle;fontStyle=0;html=1;fontSize=18;points=[];strokeColor=none;" parent="1" vertex="1">
          <mxGeometry x="2459" y="1610" width="120" height="30" as="geometry" />
        </mxCell>
        <mxCell id="O5yS58qQo2ibNoiR0Kj5-16" value="&lt;font style=&quot;font-size: 30px&quot;&gt;16-coflow&lt;/font&gt;" style="text;spacingTop=-5;align=center;verticalAlign=middle;fontStyle=0;html=1;fontSize=18;points=[];strokeColor=none;" parent="1" vertex="1">
          <mxGeometry x="2580" y="1610.25" width="120" height="30" as="geometry" />
        </mxCell>
        <mxCell id="O5yS58qQo2ibNoiR0Kj5-17" value="&lt;font style=&quot;font-size: 30px&quot;&gt;24-coflow&lt;/font&gt;" style="text;spacingTop=-5;align=center;verticalAlign=middle;fontStyle=0;html=1;fontSize=18;points=[];strokeColor=none;" parent="1" vertex="1">
          <mxGeometry x="2714" y="1610.25" width="120" height="30" as="geometry" />
        </mxCell>
        <mxCell id="O5yS58qQo2ibNoiR0Kj5-18" value="&lt;font style=&quot;font-size: 30px&quot;&gt;32-coflow&lt;/font&gt;" style="text;spacingTop=-5;align=center;verticalAlign=middle;fontStyle=0;html=1;fontSize=18;points=[];strokeColor=none;" parent="1" vertex="1">
          <mxGeometry x="2847" y="1610.25" width="120" height="30" as="geometry" />
        </mxCell>
        <mxCell id="O5yS58qQo2ibNoiR0Kj5-19" value="&lt;font style=&quot;font-size: 30px&quot;&gt;R&lt;sup&gt;2&lt;/sup&gt;SP&lt;/font&gt;" style="text;spacingTop=-5;align=center;verticalAlign=middle;fontStyle=0;html=1;fontSize=18;points=[];strokeColor=none;" parent="1" vertex="1">
          <mxGeometry x="2210.25" y="1608" width="120" height="30" as="geometry" />
        </mxCell>
        <mxCell id="O5yS58qQo2ibNoiR0Kj5-20" value="&lt;font style=&quot;font-size: 30px&quot;&gt;2-coflow&lt;/font&gt;" style="text;spacingTop=-5;align=center;verticalAlign=middle;fontStyle=0;html=1;fontSize=30;points=[];strokeColor=none;" parent="1" vertex="1">
          <mxGeometry x="2336.25" y="1609" width="120" height="30" as="geometry" />
        </mxCell>
        <mxCell id="O5yS58qQo2ibNoiR0Kj5-21" value="&lt;font style=&quot;font-size: 30px&quot;&gt;40-coflow&lt;/font&gt;" style="text;spacingTop=-5;align=center;verticalAlign=middle;fontStyle=0;html=1;fontSize=18;points=[];strokeColor=none;" parent="1" vertex="1">
          <mxGeometry x="2981" y="1611.25" width="120" height="30" as="geometry" />
        </mxCell>
        <mxCell id="O5yS58qQo2ibNoiR0Kj5-25" value="&lt;font style=&quot;font-size: 30px&quot;&gt;40Gbps&lt;/font&gt;" style="text;spacingTop=-5;html=1;points=[];fontSize=15;" parent="1" vertex="1">
          <mxGeometry x="3175" y="1038" width="80" height="20" as="geometry" />
        </mxCell>
        <mxCell id="O5yS58qQo2ibNoiR0Kj5-26" value="&lt;font style=&quot;font-size: 30px&quot;&gt;60Gbps&lt;/font&gt;" style="text;spacingTop=-5;html=1;points=[];fontSize=15;" parent="1" vertex="1">
          <mxGeometry x="3175" y="1078" width="80" height="20" as="geometry" />
        </mxCell>
        <mxCell id="O5yS58qQo2ibNoiR0Kj5-27" value="&lt;font style=&quot;font-size: 30px&quot;&gt;80Gbps&lt;/font&gt;" style="text;spacingTop=-5;html=1;points=[];fontSize=15;" parent="1" vertex="1">
          <mxGeometry x="3175" y="1118" width="80" height="20" as="geometry" />
        </mxCell>
      </root>
    </mxGraphModel>
  </diagram>
</mxfile>
